PathFileType	4	(X/Y/Z)	23_1_42_p0_0-203_filt_butterworth.trc
DataRate	CameraRate	NumFrames	NumMarkers	Units	OrigDataRate	OrigDataStartFrame	OrigNumFrames
55.0	55.0	5	27	m	55.0	0	203
Frame#	Time	RHip			RKnee			RAnkle			RBigToe			RSmallToe			RHeel			LHip			LKnee			LAnkle			LBigToe			LSmallToe			LHeel			Neck			Head			Nose			RShoulder			RElbow			RWrist			RThumb			RIndex			RPinky			LShoulder			LElbow			LWrist			LThumb			LIndex			LPinky			
		X1	Y1	Z1	X2	Y2	Z2	X3	Y3	Z3	X4	Y4	Z4	X5	Y5	Z5	X6	Y6	Z6	X7	Y7	Z7	X8	Y8	Z8	X9	Y9	Z9	X10	Y10	Z10	X11	Y11	Z11	X12	Y12	Z12	X13	Y13	Z13	X14	Y14	Z14	X15	Y15	Z15	X16	Y16	Z16	X17	Y17	Z17	X18	Y18	Z18	X19	Y19	Z19	X20	Y20	Z20	X21	Y21	Z21	X22	Y22	Z22	X23	Y23	Z23	X24	Y24	Z24	X25	Y25	Z25	X26	Y26	Z26	X27	Y27	Z27	
0	0.0	0.16326439614163354	0.49028559805443145	0.9670292776052747	0.19249328007828495	0.5160080532434926	1.398314625605004	0.15181417874079378	0.48988036287221753	1.769909026545418	0.1323328233466206	0.374477394157705	1.7930603559499794	0.19299191474838323	0.37986287505077687	1.7914100399743516	0.14292081676807147	0.5704382485103324	1.8371742429041475	-0.030778620957618227	0.5178145201827057	0.978605095307248	-0.03656280123102395	0.5435444313578859	1.382843848149525	-0.029428195528052495	0.5782781375287656	1.8013128953846518	-0.019733073296230717	0.41399812094403343	1.802423462119066	-0.07181088341768742	0.4555280154878041	1.8120110762251107	-0.027348439555685996	0.6116217033207791	1.8355229297231066	0.06092796112060845	0.47709660787829833	0.4000389127997255	0.05863734372322171	0.398088663439498	0.15636320761464084	0.03134499371038295	0.31750649098251194	0.2681236098988582	0.19892359412436533	0.41723676860358105	0.47472816183517086	0.21240865697317388	0.42233528091360095	0.7374505178087114	0.1285581414164314	0.35341825574115526	0.954516738322827	0.061419625606454545	0.3363397343126957	1.0547034191538496	0.05833758664241408	0.33827092185321583	1.055972926464614	0.07675721623182377	0.3871622344260993	1.068823433022374	-0.0643739308717517	0.5086658486391201	0.4933207157454759	-0.07670865976777638	0.47127842575580436	0.7555193835595417	0.012318670751587098	0.40187721787790526	0.9690067920889665	0.08310420780766399	0.3601485635790337	1.0398564608725764	0.08021671839866812	0.35872837524513623	1.0641783415890036	0.03783735123231013	0.3943104367645786	1.0749837041893016
1	0.0181818181818181	0.16593234269778562	0.49024388921823386	0.9683075056185083	0.1886353069830797	0.5093433704200124	1.399556771983775	0.15181933296014433	0.4897925621332652	1.7698864616361965	0.13357531146489054	0.36466211206007604	1.7861448580303398	0.1930172068804574	0.38041249839238084	1.7917360623329657	0.1430584756845947	0.5706992403903572	1.8379338720560912	-0.030666952362593362	0.5175609044237635	0.9786336016147816	-0.03685145725076037	0.5433469316332074	1.3839077719513546	-0.02945730269376223	0.5783602480609665	1.8015560845227476	-0.018461638332580136	0.4049465285468052	1.796061740397738	-0.06966838039607261	0.4467412064540764	1.8062541176623303	-0.024069436044049958	0.613536250193299	1.8382594465507909	0.0609140325189885	0.4769619896302124	0.3999873871588251	0.059941906701666534	0.4009864257799981	0.15536699465908835	0.031133066775219997	0.3173299577036625	0.27016499462852184	0.19897067428877524	0.4172614444842966	0.47480267890154837	0.21243197357168347	0.4221883025871802	0.7375057538503595	0.12858072603883813	0.35345408549844537	0.9547818632820073	0.059685766027408375	0.33577689117514614	1.0544831923465128	0.05746973890844137	0.33808523369908194	1.0559454294872765	0.08161272429660714	0.3994124173773198	1.0753935451031131	-0.06441899254551181	0.5088430776913735	0.4908835597098535	-0.0787469615268636	0.46449517686646463	0.7517467633005314	0.012512118707903544	0.4022045438389368	0.9702464060168368	0.08083347391218604	0.36254574556919544	1.0436554543297287	0.08123993364641534	0.3608646027922777	1.064799919457312	0.040125146528420086	0.39272752806724076	1.0743417756647744
2	0.0363636363636363	0.1674222236487276	0.4901893035460313	0.9687387860220846	0.1870818510646949	0.5067731020030607	1.3995724251682615	0.1518125183094223	0.48974445627613994	1.7698688478439228	0.13327328328248148	0.3566782231554342	1.7809298705659145	0.19296979350275192	0.3808475208362641	1.7918331027357766	0.14336665805233129	0.5711590206597719	1.839433244453564	-0.03060803746154381	0.5175956801780135	0.9786279661204721	-0.03719056621926182	0.5426919867451521	1.3821153888304076	-0.029467465072981706	0.5784237236981189	1.8016800994101942	-0.017664788942624906	0.399936268727714	1.791943211899011	-0.06861005554352606	0.44133459106213085	1.8023957870262455	-0.022372922556814105	0.6147824897985669	1.8405337501417525	0.06082844932043534	0.4768835451888672	0.3999552340243947	0.0611504135908024	0.40088871596439385	0.1552990290834111	0.031058782668180476	0.317218394630295	0.27130707745508403	0.19900487875579675	0.4172742693148195	0.47485081199129675	0.21245340529950812	0.42211345253948135	0.7375369227238759	0.12859938203078364	0.3534833544869991	0.9549494191217875	0.058760886519018965	0.33536683565774206	1.0543339807251821	0.05678860045508984	0.33798299360340267	1.0558732989227486	0.08469478085992345	0.40553362560716805	1.0792864273635996	-0.06445889023091761	0.5090851690327892	0.489536799044783	-0.07909927552486594	0.4631708454218784	0.7501854076788688	0.012572452285358963	0.4023565262521593	0.9707422620384555	0.0803526723518657	0.3654320388764467	1.0462596772374124	0.08257670136304816	0.36270264805102037	1.0653828040690365	0.04204638575693551	0.39411472382093193	1.0747621252436657
3	0.0545454545454545	0.16786118506939365	0.49008937667345565	0.9680753374373327	0.18718090824336145	0.5068595496245625	1.3988070441430216	0.15181024387351108	0.4897593480112896	1.7698622610475252	0.1317090489423691	0.35120202490631397	1.777724289694297	0.19287368259942825	0.3811175779436744	1.791400590418237	0.1438050855259996	0.5717382688170779	1.8413667688548387	-0.030621169633291617	0.517893974523121	0.9784808139032399	-0.03745589985598621	0.5419429192522129	1.3791360938423245	-0.02946181528371445	0.5784366800597821	1.8016860038487936	-0.017347123136926216	0.39754932156057443	1.7887954669714776	-0.06848619564773348	0.4394728828961886	1.8011858428460261	-0.02215401379740419	0.6154724985474213	1.843056132257798	0.06077970330668012	0.4768647050982918	0.3999402172064346	0.06303321856051558	0.3988685226798034	0.15580871003255825	0.03142229593077727	0.3172107102658096	0.2715395998738622	0.1990255631160516	0.4172662746347054	0.47487122786374614	0.21246926353194753	0.4221100972790187	0.7375409528752326	0.1286121448767022	0.3534936569440012	0.9549931688682551	0.05861394705859596	0.3350731700642887	1.0542717695336523	0.05610528398345023	0.33787619282106035	1.05578819217119	0.08578352714887967	0.40477544015100486	1.0796255453930328	-0.06450946061830436	0.5094520659924782	0.4892973995055464	-0.07799627193026011	0.4667386838517531	0.7510159719839207	0.012444320071454849	0.4022727687627605	0.9702110120135795	0.081153190342885	0.3676959741508986	1.047313708552257	0.08370665917471252	0.3643528233786979	1.0659453091819593	0.043268365214980696	0.3963187448383956	1.075521486804986
4	0.0727272727272727	0.16800825663000343	0.4899793986752502	0.9670634423980844	0.18716461296732412	0.5061956043473814	1.398225649950551	0.1518332169494009	0.48983090082057446	1.7698558914147189	0.1304191799855776	0.3483928219502829	1.7757876740938212	0.19280520631225762	0.3814319962846827	1.790356906592312	0.1441390228947845	0.5721697660152363	1.8427652035915663	-0.030648044488834104	0.5179127338108148	0.977955045336032	-0.03755219159406376	0.5415700675044277	1.3775349965934724	-0.029456803335967743	0.5784024040764698	1.8016510296558188	-0.017317160437229834	0.39428248956371403	1.7860987552815417	-0.06854050565984972	0.4395632181451361	1.8020134554959206	-0.02242010500802984	0.6158972395897029	1.8457437477380134	0.06116171963943699	0.4768601022360286	0.39992218430428184	0.06578086820357266	0.3974144805566754	0.15615951725435187	0.03246569277466638	0.3173064371461572	0.27140163931851846	0.19903978691717616	0.4172386243085132	0.47487963762643876	0.2124815328459252	0.4221317647187961	0.7375355974641022	0.1286198728821994	0.3534881900491954	0.9549691310478708	0.05871573774684129	0.33473176090480095	1.0542560005850696	0.05569997366565366	0.3375719768241886	1.0559319386989723	0.08597925524985943	0.4015441821060789	1.077653084366665	-0.06451786828584889	0.5096274370567601	0.48947567034225	-0.07688957676024175	0.47070396704624096	0.7529755681833588	0.012256358015837899	0.40210731258377513	0.9692842331177344	0.08184539815304735	0.3684825648687672	1.047389323350474	0.08416237736804819	0.3661922319502381	1.0665627013598546	0.04383744204697766	0.3962724421662076	1.075548881682015
